<mxfile host="app.diagrams.net" modified="2024-01-03T08:54:18.481Z" agent="Mozilla/5.0 (Windows NT 10.0; Win64; x64) AppleWebKit/537.36 (KHTML, like Gecko) Chrome/120.0.0.0 Safari/537.36" etag="2kAL4AC4Qn9SlRG7B_r4" version="22.1.16" type="github">
  <diagram name="페이지-1" id="T6XdV0x8x1hEwgSM4rQ8">
    <mxGraphModel dx="874" dy="974" grid="1" gridSize="10" guides="1" tooltips="1" connect="1" arrows="1" fold="1" page="1" pageScale="1" pageWidth="1390" pageHeight="980" math="0" shadow="0">
      <root>
        <mxCell id="0" />
        <mxCell id="1" parent="0" />
        <mxCell id="AcpZplOeB1g9L8UyIjfG-28" value="제품" style="whiteSpace=wrap;html=1;align=center;" parent="1" vertex="1">
          <mxGeometry x="550" y="470" width="100" height="40" as="geometry" />
        </mxCell>
        <mxCell id="AcpZplOeB1g9L8UyIjfG-29" value="가입일" style="ellipse;whiteSpace=wrap;html=1;align=center;" parent="1" vertex="1">
          <mxGeometry x="120" y="240" width="100" height="40" as="geometry" />
        </mxCell>
        <mxCell id="AcpZplOeB1g9L8UyIjfG-31" value="고객" style="whiteSpace=wrap;html=1;align=center;" parent="1" vertex="1">
          <mxGeometry x="250" y="160" width="100" height="40" as="geometry" />
        </mxCell>
        <mxCell id="AcpZplOeB1g9L8UyIjfG-32" value="지역" style="whiteSpace=wrap;html=1;align=center;" parent="1" vertex="1">
          <mxGeometry x="150" y="470" width="100" height="40" as="geometry" />
        </mxCell>
        <mxCell id="AcpZplOeB1g9L8UyIjfG-39" value="주소" style="ellipse;whiteSpace=wrap;html=1;align=center;" parent="1" vertex="1">
          <mxGeometry x="400" y="160" width="100" height="40" as="geometry" />
        </mxCell>
        <mxCell id="AcpZplOeB1g9L8UyIjfG-40" value="이메일" style="ellipse;whiteSpace=wrap;html=1;align=center;" parent="1" vertex="1">
          <mxGeometry x="400" y="80" width="100" height="40" as="geometry" />
        </mxCell>
        <mxCell id="AcpZplOeB1g9L8UyIjfG-41" value="고객명" style="ellipse;whiteSpace=wrap;html=1;align=center;" parent="1" vertex="1">
          <mxGeometry x="430" y="230" width="100" height="40" as="geometry" />
        </mxCell>
        <mxCell id="AcpZplOeB1g9L8UyIjfG-43" value="전화번호" style="ellipse;whiteSpace=wrap;html=1;align=center;" parent="1" vertex="1">
          <mxGeometry x="120" y="80" width="100" height="40" as="geometry" />
        </mxCell>
        <mxCell id="AcpZplOeB1g9L8UyIjfG-46" value="제품명" style="ellipse;whiteSpace=wrap;html=1;align=center;" parent="1" vertex="1">
          <mxGeometry x="550" y="540" width="100" height="40" as="geometry" />
        </mxCell>
        <mxCell id="AcpZplOeB1g9L8UyIjfG-47" value="제품구분" style="ellipse;whiteSpace=wrap;html=1;align=center;" parent="1" vertex="1">
          <mxGeometry x="550" y="390" width="100" height="40" as="geometry" />
        </mxCell>
        <mxCell id="AcpZplOeB1g9L8UyIjfG-49" value="지역코드" style="ellipse;whiteSpace=wrap;html=1;align=center;" parent="1" vertex="1">
          <mxGeometry x="20" y="470" width="100" height="40" as="geometry" />
        </mxCell>
        <mxCell id="AcpZplOeB1g9L8UyIjfG-50" value="지역명" style="ellipse;whiteSpace=wrap;html=1;align=center;" parent="1" vertex="1">
          <mxGeometry x="150" y="540" width="100" height="40" as="geometry" />
        </mxCell>
        <mxCell id="AcpZplOeB1g9L8UyIjfG-51" value="고객코드" style="ellipse;whiteSpace=wrap;html=1;align=center;fontStyle=4;" parent="1" vertex="1">
          <mxGeometry x="240" y="240" width="100" height="40" as="geometry" />
        </mxCell>
        <mxCell id="AcpZplOeB1g9L8UyIjfG-53" value="제품코드" style="ellipse;whiteSpace=wrap;html=1;align=center;fontStyle=4;" parent="1" vertex="1">
          <mxGeometry x="670" y="550" width="100" height="40" as="geometry" />
        </mxCell>
        <mxCell id="AcpZplOeB1g9L8UyIjfG-54" value="상세주소" style="ellipse;whiteSpace=wrap;html=1;align=center;" parent="1" vertex="1">
          <mxGeometry x="550" y="200" width="100" height="40" as="geometry" />
        </mxCell>
        <mxCell id="AcpZplOeB1g9L8UyIjfG-55" value="기본주소" style="ellipse;whiteSpace=wrap;html=1;align=center;" parent="1" vertex="1">
          <mxGeometry x="550" y="120" width="100" height="40" as="geometry" />
        </mxCell>
        <mxCell id="AcpZplOeB1g9L8UyIjfG-58" value="" style="endArrow=none;html=1;rounded=0;entryX=0;entryY=0.5;entryDx=0;entryDy=0;" parent="1" target="AcpZplOeB1g9L8UyIjfG-40" edge="1">
          <mxGeometry width="50" height="50" relative="1" as="geometry">
            <mxPoint x="350" y="160" as="sourcePoint" />
            <mxPoint x="400" y="110" as="targetPoint" />
          </mxGeometry>
        </mxCell>
        <mxCell id="AcpZplOeB1g9L8UyIjfG-60" value="" style="endArrow=none;html=1;rounded=0;entryX=0;entryY=0.5;entryDx=0;entryDy=0;" parent="1" target="AcpZplOeB1g9L8UyIjfG-55" edge="1">
          <mxGeometry width="50" height="50" relative="1" as="geometry">
            <mxPoint x="499" y="180" as="sourcePoint" />
            <mxPoint x="549" y="130" as="targetPoint" />
          </mxGeometry>
        </mxCell>
        <mxCell id="AcpZplOeB1g9L8UyIjfG-61" value="" style="endArrow=none;html=1;rounded=0;entryX=0;entryY=0.5;entryDx=0;entryDy=0;" parent="1" target="AcpZplOeB1g9L8UyIjfG-54" edge="1">
          <mxGeometry width="50" height="50" relative="1" as="geometry">
            <mxPoint x="499" y="180" as="sourcePoint" />
            <mxPoint x="549" y="130" as="targetPoint" />
          </mxGeometry>
        </mxCell>
        <mxCell id="AcpZplOeB1g9L8UyIjfG-62" value="" style="endArrow=none;html=1;rounded=0;entryX=0;entryY=0.5;entryDx=0;entryDy=0;" parent="1" target="AcpZplOeB1g9L8UyIjfG-41" edge="1">
          <mxGeometry width="50" height="50" relative="1" as="geometry">
            <mxPoint x="350" y="200" as="sourcePoint" />
            <mxPoint x="400" y="150" as="targetPoint" />
          </mxGeometry>
        </mxCell>
        <mxCell id="AcpZplOeB1g9L8UyIjfG-63" value="" style="endArrow=none;html=1;rounded=0;exitX=0.5;exitY=0;exitDx=0;exitDy=0;" parent="1" source="AcpZplOeB1g9L8UyIjfG-51" edge="1">
          <mxGeometry width="50" height="50" relative="1" as="geometry">
            <mxPoint x="250" y="250" as="sourcePoint" />
            <mxPoint x="300" y="200" as="targetPoint" />
          </mxGeometry>
        </mxCell>
        <mxCell id="AcpZplOeB1g9L8UyIjfG-64" value="" style="endArrow=none;html=1;rounded=0;entryX=0;entryY=0.5;entryDx=0;entryDy=0;" parent="1" target="AcpZplOeB1g9L8UyIjfG-39" edge="1">
          <mxGeometry width="50" height="50" relative="1" as="geometry">
            <mxPoint x="350" y="180" as="sourcePoint" />
            <mxPoint x="350" y="110" as="targetPoint" />
          </mxGeometry>
        </mxCell>
        <mxCell id="AcpZplOeB1g9L8UyIjfG-65" value="" style="endArrow=none;html=1;rounded=0;exitX=1;exitY=0.5;exitDx=0;exitDy=0;" parent="1" source="AcpZplOeB1g9L8UyIjfG-29" edge="1">
          <mxGeometry width="50" height="50" relative="1" as="geometry">
            <mxPoint x="200" y="250" as="sourcePoint" />
            <mxPoint x="250" y="200" as="targetPoint" />
          </mxGeometry>
        </mxCell>
        <mxCell id="AcpZplOeB1g9L8UyIjfG-66" value="" style="endArrow=none;html=1;rounded=0;entryX=1;entryY=0.5;entryDx=0;entryDy=0;" parent="1" target="AcpZplOeB1g9L8UyIjfG-43" edge="1">
          <mxGeometry width="50" height="50" relative="1" as="geometry">
            <mxPoint x="250" y="160" as="sourcePoint" />
            <mxPoint x="240" y="130" as="targetPoint" />
          </mxGeometry>
        </mxCell>
        <mxCell id="AcpZplOeB1g9L8UyIjfG-67" value="" style="endArrow=none;html=1;rounded=0;entryX=0;entryY=0.5;entryDx=0;entryDy=0;" parent="1" target="AcpZplOeB1g9L8UyIjfG-32" edge="1">
          <mxGeometry width="50" height="50" relative="1" as="geometry">
            <mxPoint x="120" y="490" as="sourcePoint" />
            <mxPoint x="170" y="440" as="targetPoint" />
          </mxGeometry>
        </mxCell>
        <mxCell id="AcpZplOeB1g9L8UyIjfG-68" value="" style="endArrow=none;html=1;rounded=0;entryX=0.5;entryY=1;entryDx=0;entryDy=0;" parent="1" target="AcpZplOeB1g9L8UyIjfG-32" edge="1">
          <mxGeometry width="50" height="50" relative="1" as="geometry">
            <mxPoint x="200" y="540" as="sourcePoint" />
            <mxPoint x="250" y="490" as="targetPoint" />
          </mxGeometry>
        </mxCell>
        <mxCell id="AcpZplOeB1g9L8UyIjfG-69" value="" style="endArrow=none;html=1;rounded=0;exitX=0.5;exitY=0;exitDx=0;exitDy=0;" parent="1" source="AcpZplOeB1g9L8UyIjfG-28" edge="1">
          <mxGeometry width="50" height="50" relative="1" as="geometry">
            <mxPoint x="550" y="480" as="sourcePoint" />
            <mxPoint x="600" y="430" as="targetPoint" />
          </mxGeometry>
        </mxCell>
        <mxCell id="AcpZplOeB1g9L8UyIjfG-70" value="" style="endArrow=none;html=1;rounded=0;exitX=0.5;exitY=0;exitDx=0;exitDy=0;" parent="1" source="AcpZplOeB1g9L8UyIjfG-46" edge="1">
          <mxGeometry width="50" height="50" relative="1" as="geometry">
            <mxPoint x="550" y="560" as="sourcePoint" />
            <mxPoint x="600" y="510" as="targetPoint" />
          </mxGeometry>
        </mxCell>
        <mxCell id="AcpZplOeB1g9L8UyIjfG-71" value="" style="endArrow=none;html=1;rounded=0;exitX=0.5;exitY=0;exitDx=0;exitDy=0;entryX=1;entryY=1;entryDx=0;entryDy=0;" parent="1" source="AcpZplOeB1g9L8UyIjfG-53" target="AcpZplOeB1g9L8UyIjfG-28" edge="1">
          <mxGeometry width="50" height="50" relative="1" as="geometry">
            <mxPoint x="500" y="540" as="sourcePoint" />
            <mxPoint x="550" y="490" as="targetPoint" />
          </mxGeometry>
        </mxCell>
        <mxCell id="AcpZplOeB1g9L8UyIjfG-72" value="" style="endArrow=none;html=1;rounded=0;entryX=0;entryY=0.5;entryDx=0;entryDy=0;" parent="1" edge="1">
          <mxGeometry width="50" height="50" relative="1" as="geometry">
            <mxPoint x="650" y="490" as="sourcePoint" />
            <mxPoint x="680" y="490" as="targetPoint" />
          </mxGeometry>
        </mxCell>
        <mxCell id="AcpZplOeB1g9L8UyIjfG-73" value="고객" style="ellipse;whiteSpace=wrap;html=1;align=center;" parent="1" vertex="1">
          <mxGeometry x="420" y="540" width="100" height="40" as="geometry" />
        </mxCell>
        <mxCell id="AcpZplOeB1g9L8UyIjfG-74" value="가격" style="ellipse;whiteSpace=wrap;html=1;align=center;" parent="1" vertex="1">
          <mxGeometry x="670" y="390" width="100" height="40" as="geometry" />
        </mxCell>
        <mxCell id="AcpZplOeB1g9L8UyIjfG-75" value="" style="endArrow=none;html=1;rounded=0;exitX=1;exitY=0.5;exitDx=0;exitDy=0;" parent="1" source="AcpZplOeB1g9L8UyIjfG-73" edge="1">
          <mxGeometry width="50" height="50" relative="1" as="geometry">
            <mxPoint x="500" y="560" as="sourcePoint" />
            <mxPoint x="550" y="510" as="targetPoint" />
          </mxGeometry>
        </mxCell>
        <mxCell id="AcpZplOeB1g9L8UyIjfG-76" value="" style="endArrow=none;html=1;rounded=0;entryX=0.5;entryY=1;entryDx=0;entryDy=0;" parent="1" target="AcpZplOeB1g9L8UyIjfG-74" edge="1">
          <mxGeometry width="50" height="50" relative="1" as="geometry">
            <mxPoint x="650" y="470" as="sourcePoint" />
            <mxPoint x="700" y="420" as="targetPoint" />
          </mxGeometry>
        </mxCell>
        <mxCell id="AcpZplOeB1g9L8UyIjfG-77" value="제품" style="ellipse;whiteSpace=wrap;html=1;align=center;" parent="1" vertex="1">
          <mxGeometry x="120" y="160" width="100" height="40" as="geometry" />
        </mxCell>
        <mxCell id="AcpZplOeB1g9L8UyIjfG-78" value="" style="endArrow=none;html=1;rounded=0;entryX=0;entryY=0.5;entryDx=0;entryDy=0;exitX=1;exitY=0.5;exitDx=0;exitDy=0;" parent="1" source="AcpZplOeB1g9L8UyIjfG-77" target="AcpZplOeB1g9L8UyIjfG-31" edge="1">
          <mxGeometry width="50" height="50" relative="1" as="geometry">
            <mxPoint x="490" y="410" as="sourcePoint" />
            <mxPoint x="540" y="360" as="targetPoint" />
          </mxGeometry>
        </mxCell>
        <mxCell id="AcpZplOeB1g9L8UyIjfG-79" value="제품색상" style="ellipse;shape=doubleEllipse;margin=3;whiteSpace=wrap;html=1;align=center;" parent="1" vertex="1">
          <mxGeometry x="680" y="470" width="100" height="40" as="geometry" />
        </mxCell>
        <mxCell id="AcpZplOeB1g9L8UyIjfG-80" value="" style="endArrow=none;html=1;rounded=0;entryX=0.5;entryY=1;entryDx=0;entryDy=0;" parent="1" target="AcpZplOeB1g9L8UyIjfG-38" edge="1">
          <mxGeometry width="50" height="50" relative="1" as="geometry">
            <mxPoint x="300" y="160" as="sourcePoint" />
            <mxPoint x="300" y="120" as="targetPoint" />
          </mxGeometry>
        </mxCell>
        <mxCell id="AcpZplOeB1g9L8UyIjfG-38" value="지역" style="ellipse;whiteSpace=wrap;html=1;align=center;" parent="1" vertex="1">
          <mxGeometry x="250" y="80" width="100" height="40" as="geometry" />
        </mxCell>
        <mxCell id="AcpZplOeB1g9L8UyIjfG-81" value="구매" style="shape=rhombus;perimeter=rhombusPerimeter;whiteSpace=wrap;html=1;align=center;" parent="1" vertex="1">
          <mxGeometry x="410" y="330" width="120" height="60" as="geometry" />
        </mxCell>
        <mxCell id="AcpZplOeB1g9L8UyIjfG-89" value="관리" style="shape=rhombus;perimeter=rhombusPerimeter;whiteSpace=wrap;html=1;align=center;" parent="1" vertex="1">
          <mxGeometry x="160" y="330" width="120" height="60" as="geometry" />
        </mxCell>
        <mxCell id="AcpZplOeB1g9L8UyIjfG-90" value="" style="endArrow=none;html=1;rounded=0;entryX=0.5;entryY=0;entryDx=0;entryDy=0;" parent="1" edge="1">
          <mxGeometry relative="1" as="geometry">
            <mxPoint x="350" y="200" as="sourcePoint" />
            <mxPoint x="410" y="360" as="targetPoint" />
          </mxGeometry>
        </mxCell>
        <mxCell id="AcpZplOeB1g9L8UyIjfG-91" value="M" style="resizable=0;html=1;whiteSpace=wrap;align=right;verticalAlign=bottom;" parent="AcpZplOeB1g9L8UyIjfG-90" connectable="0" vertex="1">
          <mxGeometry x="1" relative="1" as="geometry">
            <mxPoint x="10" y="-10" as="offset" />
          </mxGeometry>
        </mxCell>
        <mxCell id="AcpZplOeB1g9L8UyIjfG-93" value="" style="endArrow=none;html=1;rounded=0;entryX=1;entryY=0.5;entryDx=0;entryDy=0;exitX=0;exitY=0;exitDx=0;exitDy=0;" parent="1" source="AcpZplOeB1g9L8UyIjfG-28" target="AcpZplOeB1g9L8UyIjfG-81" edge="1">
          <mxGeometry relative="1" as="geometry">
            <mxPoint x="360" y="440" as="sourcePoint" />
            <mxPoint x="520" y="440" as="targetPoint" />
          </mxGeometry>
        </mxCell>
        <mxCell id="AcpZplOeB1g9L8UyIjfG-94" value="N" style="resizable=0;html=1;whiteSpace=wrap;align=right;verticalAlign=bottom;" parent="AcpZplOeB1g9L8UyIjfG-93" connectable="0" vertex="1">
          <mxGeometry x="1" relative="1" as="geometry" />
        </mxCell>
        <mxCell id="AcpZplOeB1g9L8UyIjfG-96" value="" style="endArrow=none;html=1;rounded=0;exitX=0.5;exitY=1;exitDx=0;exitDy=0;entryX=0.5;entryY=0;entryDx=0;entryDy=0;" parent="1" source="AcpZplOeB1g9L8UyIjfG-89" target="AcpZplOeB1g9L8UyIjfG-32" edge="1">
          <mxGeometry relative="1" as="geometry">
            <mxPoint x="290" y="440" as="sourcePoint" />
            <mxPoint x="450" y="440" as="targetPoint" />
          </mxGeometry>
        </mxCell>
        <mxCell id="AcpZplOeB1g9L8UyIjfG-97" value="1" style="resizable=0;html=1;whiteSpace=wrap;align=right;verticalAlign=bottom;" parent="AcpZplOeB1g9L8UyIjfG-96" connectable="0" vertex="1">
          <mxGeometry x="1" relative="1" as="geometry">
            <mxPoint x="30" y="-60" as="offset" />
          </mxGeometry>
        </mxCell>
        <mxCell id="AcpZplOeB1g9L8UyIjfG-100" value="" style="endArrow=none;html=1;rounded=0;exitX=0.5;exitY=0;exitDx=0;exitDy=0;entryX=0;entryY=1;entryDx=0;entryDy=0;" parent="1" source="AcpZplOeB1g9L8UyIjfG-89" target="AcpZplOeB1g9L8UyIjfG-31" edge="1">
          <mxGeometry relative="1" as="geometry">
            <mxPoint x="290" y="440" as="sourcePoint" />
            <mxPoint x="450" y="440" as="targetPoint" />
          </mxGeometry>
        </mxCell>
        <mxCell id="AcpZplOeB1g9L8UyIjfG-101" value="N" style="resizable=0;html=1;whiteSpace=wrap;align=right;verticalAlign=bottom;" parent="AcpZplOeB1g9L8UyIjfG-100" connectable="0" vertex="1">
          <mxGeometry x="1" relative="1" as="geometry">
            <mxPoint x="-30" y="130" as="offset" />
          </mxGeometry>
        </mxCell>
        <mxCell id="AcpZplOeB1g9L8UyIjfG-102" value="구매일자" style="ellipse;whiteSpace=wrap;html=1;align=center;" parent="1" vertex="1">
          <mxGeometry x="410" y="440" width="100" height="40" as="geometry" />
        </mxCell>
        <mxCell id="AcpZplOeB1g9L8UyIjfG-106" style="edgeStyle=orthogonalEdgeStyle;rounded=0;orthogonalLoop=1;jettySize=auto;html=1;exitX=0.5;exitY=1;exitDx=0;exitDy=0;" parent="1" source="AcpZplOeB1g9L8UyIjfG-103" edge="1">
          <mxGeometry relative="1" as="geometry">
            <mxPoint x="380" y="430" as="targetPoint" />
          </mxGeometry>
        </mxCell>
        <mxCell id="AcpZplOeB1g9L8UyIjfG-103" value="수량" style="ellipse;whiteSpace=wrap;html=1;align=center;" parent="1" vertex="1">
          <mxGeometry x="330" y="390" width="100" height="40" as="geometry" />
        </mxCell>
        <mxCell id="AcpZplOeB1g9L8UyIjfG-104" value="" style="endArrow=none;html=1;rounded=0;entryX=0.5;entryY=1;entryDx=0;entryDy=0;exitX=1;exitY=0.5;exitDx=0;exitDy=0;" parent="1" source="AcpZplOeB1g9L8UyIjfG-103" target="AcpZplOeB1g9L8UyIjfG-81" edge="1">
          <mxGeometry width="50" height="50" relative="1" as="geometry">
            <mxPoint x="420" y="400" as="sourcePoint" />
            <mxPoint x="460" y="410" as="targetPoint" />
          </mxGeometry>
        </mxCell>
        <mxCell id="AcpZplOeB1g9L8UyIjfG-105" value="" style="endArrow=none;html=1;rounded=0;exitX=0.5;exitY=0;exitDx=0;exitDy=0;" parent="1" source="AcpZplOeB1g9L8UyIjfG-102" edge="1">
          <mxGeometry width="50" height="50" relative="1" as="geometry">
            <mxPoint x="430" y="410" as="sourcePoint" />
            <mxPoint x="470" y="390" as="targetPoint" />
          </mxGeometry>
        </mxCell>
        <mxCell id="AcpZplOeB1g9L8UyIjfG-108" value="" style="resizable=0;html=1;whiteSpace=wrap;align=right;verticalAlign=bottom;" parent="1" connectable="0" vertex="1">
          <mxGeometry x="259.99631439093474" y="339.9959709726157" as="geometry">
            <mxPoint x="-206" y="-234" as="offset" />
          </mxGeometry>
        </mxCell>
        <mxCell id="AcpZplOeB1g9L8UyIjfG-109" value="&lt;b&gt;&lt;font color=&quot;#33ffff&quot;&gt;온라인 전자상거래 ERD_조범수&amp;nbsp;&lt;/font&gt;&lt;/b&gt;" style="text;html=1;align=center;verticalAlign=middle;resizable=0;points=[];autosize=1;strokeColor=none;fillColor=none;" parent="1" vertex="1">
          <mxGeometry x="10" y="10" width="200" height="30" as="geometry" />
        </mxCell>
        <mxCell id="ezrU08nuB66AEn2tiLmI-1" value="고객" style="shape=table;startSize=30;container=1;collapsible=1;childLayout=tableLayout;fixedRows=1;rowLines=0;fontStyle=1;align=center;resizeLast=1;html=1;fontSize=16;" vertex="1" parent="1">
          <mxGeometry x="880" y="207.5" width="180" height="250" as="geometry" />
        </mxCell>
        <mxCell id="ezrU08nuB66AEn2tiLmI-2" value="" style="shape=tableRow;horizontal=0;startSize=0;swimlaneHead=0;swimlaneBody=0;fillColor=none;collapsible=0;dropTarget=0;points=[[0,0.5],[1,0.5]];portConstraint=eastwest;top=0;left=0;right=0;bottom=1;fontSize=16;" vertex="1" parent="ezrU08nuB66AEn2tiLmI-1">
          <mxGeometry y="30" width="180" height="30" as="geometry" />
        </mxCell>
        <mxCell id="ezrU08nuB66AEn2tiLmI-3" value="PK" style="shape=partialRectangle;connectable=0;fillColor=none;top=0;left=0;bottom=0;right=0;fontStyle=1;overflow=hidden;whiteSpace=wrap;html=1;fontSize=16;" vertex="1" parent="ezrU08nuB66AEn2tiLmI-2">
          <mxGeometry width="30" height="30" as="geometry">
            <mxRectangle width="30" height="30" as="alternateBounds" />
          </mxGeometry>
        </mxCell>
        <mxCell id="ezrU08nuB66AEn2tiLmI-4" value="&lt;font color=&quot;#ff3333&quot;&gt;고객코드&lt;/font&gt;" style="shape=partialRectangle;connectable=0;fillColor=none;top=0;left=0;bottom=0;right=0;align=left;spacingLeft=6;fontStyle=5;overflow=hidden;whiteSpace=wrap;html=1;fontSize=16;" vertex="1" parent="ezrU08nuB66AEn2tiLmI-2">
          <mxGeometry x="30" width="150" height="30" as="geometry">
            <mxRectangle width="150" height="30" as="alternateBounds" />
          </mxGeometry>
        </mxCell>
        <mxCell id="ezrU08nuB66AEn2tiLmI-5" value="" style="shape=tableRow;horizontal=0;startSize=0;swimlaneHead=0;swimlaneBody=0;fillColor=none;collapsible=0;dropTarget=0;points=[[0,0.5],[1,0.5]];portConstraint=eastwest;top=0;left=0;right=0;bottom=0;fontSize=16;" vertex="1" parent="ezrU08nuB66AEn2tiLmI-1">
          <mxGeometry y="60" width="180" height="30" as="geometry" />
        </mxCell>
        <mxCell id="ezrU08nuB66AEn2tiLmI-6" value="" style="shape=partialRectangle;connectable=0;fillColor=none;top=0;left=0;bottom=0;right=0;editable=1;overflow=hidden;whiteSpace=wrap;html=1;fontSize=16;" vertex="1" parent="ezrU08nuB66AEn2tiLmI-5">
          <mxGeometry width="30" height="30" as="geometry">
            <mxRectangle width="30" height="30" as="alternateBounds" />
          </mxGeometry>
        </mxCell>
        <mxCell id="ezrU08nuB66AEn2tiLmI-7" value="이메일" style="shape=partialRectangle;connectable=0;fillColor=none;top=0;left=0;bottom=0;right=0;align=left;spacingLeft=6;overflow=hidden;whiteSpace=wrap;html=1;fontSize=16;" vertex="1" parent="ezrU08nuB66AEn2tiLmI-5">
          <mxGeometry x="30" width="150" height="30" as="geometry">
            <mxRectangle width="150" height="30" as="alternateBounds" />
          </mxGeometry>
        </mxCell>
        <mxCell id="ezrU08nuB66AEn2tiLmI-8" value="" style="shape=tableRow;horizontal=0;startSize=0;swimlaneHead=0;swimlaneBody=0;fillColor=none;collapsible=0;dropTarget=0;points=[[0,0.5],[1,0.5]];portConstraint=eastwest;top=0;left=0;right=0;bottom=0;fontSize=16;" vertex="1" parent="ezrU08nuB66AEn2tiLmI-1">
          <mxGeometry y="90" width="180" height="30" as="geometry" />
        </mxCell>
        <mxCell id="ezrU08nuB66AEn2tiLmI-9" value="" style="shape=partialRectangle;connectable=0;fillColor=none;top=0;left=0;bottom=0;right=0;editable=1;overflow=hidden;whiteSpace=wrap;html=1;fontSize=16;" vertex="1" parent="ezrU08nuB66AEn2tiLmI-8">
          <mxGeometry width="30" height="30" as="geometry">
            <mxRectangle width="30" height="30" as="alternateBounds" />
          </mxGeometry>
        </mxCell>
        <mxCell id="ezrU08nuB66AEn2tiLmI-10" value="전화번호" style="shape=partialRectangle;connectable=0;fillColor=none;top=0;left=0;bottom=0;right=0;align=left;spacingLeft=6;overflow=hidden;whiteSpace=wrap;html=1;fontSize=16;" vertex="1" parent="ezrU08nuB66AEn2tiLmI-8">
          <mxGeometry x="30" width="150" height="30" as="geometry">
            <mxRectangle width="150" height="30" as="alternateBounds" />
          </mxGeometry>
        </mxCell>
        <mxCell id="ezrU08nuB66AEn2tiLmI-11" value="" style="shape=tableRow;horizontal=0;startSize=0;swimlaneHead=0;swimlaneBody=0;fillColor=none;collapsible=0;dropTarget=0;points=[[0,0.5],[1,0.5]];portConstraint=eastwest;top=0;left=0;right=0;bottom=0;fontSize=16;" vertex="1" parent="ezrU08nuB66AEn2tiLmI-1">
          <mxGeometry y="120" width="180" height="30" as="geometry" />
        </mxCell>
        <mxCell id="ezrU08nuB66AEn2tiLmI-12" value="" style="shape=partialRectangle;connectable=0;fillColor=none;top=0;left=0;bottom=0;right=0;editable=1;overflow=hidden;whiteSpace=wrap;html=1;fontSize=16;" vertex="1" parent="ezrU08nuB66AEn2tiLmI-11">
          <mxGeometry width="30" height="30" as="geometry">
            <mxRectangle width="30" height="30" as="alternateBounds" />
          </mxGeometry>
        </mxCell>
        <mxCell id="ezrU08nuB66AEn2tiLmI-13" value="고객명" style="shape=partialRectangle;connectable=0;fillColor=none;top=0;left=0;bottom=0;right=0;align=left;spacingLeft=6;overflow=hidden;whiteSpace=wrap;html=1;fontSize=16;" vertex="1" parent="ezrU08nuB66AEn2tiLmI-11">
          <mxGeometry x="30" width="150" height="30" as="geometry">
            <mxRectangle width="150" height="30" as="alternateBounds" />
          </mxGeometry>
        </mxCell>
        <mxCell id="ezrU08nuB66AEn2tiLmI-27" value="" style="shape=tableRow;horizontal=0;startSize=0;swimlaneHead=0;swimlaneBody=0;fillColor=none;collapsible=0;dropTarget=0;points=[[0,0.5],[1,0.5]];portConstraint=eastwest;top=0;left=0;right=0;bottom=0;fontSize=16;" vertex="1" parent="ezrU08nuB66AEn2tiLmI-1">
          <mxGeometry y="150" width="180" height="30" as="geometry" />
        </mxCell>
        <mxCell id="ezrU08nuB66AEn2tiLmI-28" value="" style="shape=partialRectangle;connectable=0;fillColor=none;top=0;left=0;bottom=0;right=0;editable=1;overflow=hidden;whiteSpace=wrap;html=1;fontSize=16;" vertex="1" parent="ezrU08nuB66AEn2tiLmI-27">
          <mxGeometry width="30" height="30" as="geometry">
            <mxRectangle width="30" height="30" as="alternateBounds" />
          </mxGeometry>
        </mxCell>
        <mxCell id="ezrU08nuB66AEn2tiLmI-29" value="가입일" style="shape=partialRectangle;connectable=0;fillColor=none;top=0;left=0;bottom=0;right=0;align=left;spacingLeft=6;overflow=hidden;whiteSpace=wrap;html=1;fontSize=16;" vertex="1" parent="ezrU08nuB66AEn2tiLmI-27">
          <mxGeometry x="30" width="150" height="30" as="geometry">
            <mxRectangle width="150" height="30" as="alternateBounds" />
          </mxGeometry>
        </mxCell>
        <mxCell id="ezrU08nuB66AEn2tiLmI-30" value="" style="shape=tableRow;horizontal=0;startSize=0;swimlaneHead=0;swimlaneBody=0;fillColor=none;collapsible=0;dropTarget=0;points=[[0,0.5],[1,0.5]];portConstraint=eastwest;top=0;left=0;right=0;bottom=0;fontSize=16;" vertex="1" parent="ezrU08nuB66AEn2tiLmI-1">
          <mxGeometry y="180" width="180" height="30" as="geometry" />
        </mxCell>
        <mxCell id="ezrU08nuB66AEn2tiLmI-31" value="" style="shape=partialRectangle;connectable=0;fillColor=none;top=0;left=0;bottom=0;right=0;editable=1;overflow=hidden;whiteSpace=wrap;html=1;fontSize=16;" vertex="1" parent="ezrU08nuB66AEn2tiLmI-30">
          <mxGeometry width="30" height="30" as="geometry">
            <mxRectangle width="30" height="30" as="alternateBounds" />
          </mxGeometry>
        </mxCell>
        <mxCell id="ezrU08nuB66AEn2tiLmI-32" value="기본주소" style="shape=partialRectangle;connectable=0;fillColor=none;top=0;left=0;bottom=0;right=0;align=left;spacingLeft=6;overflow=hidden;whiteSpace=wrap;html=1;fontSize=16;" vertex="1" parent="ezrU08nuB66AEn2tiLmI-30">
          <mxGeometry x="30" width="150" height="30" as="geometry">
            <mxRectangle width="150" height="30" as="alternateBounds" />
          </mxGeometry>
        </mxCell>
        <mxCell id="ezrU08nuB66AEn2tiLmI-33" value="" style="shape=tableRow;horizontal=0;startSize=0;swimlaneHead=0;swimlaneBody=0;fillColor=none;collapsible=0;dropTarget=0;points=[[0,0.5],[1,0.5]];portConstraint=eastwest;top=0;left=0;right=0;bottom=0;fontSize=16;" vertex="1" parent="ezrU08nuB66AEn2tiLmI-1">
          <mxGeometry y="210" width="180" height="20" as="geometry" />
        </mxCell>
        <mxCell id="ezrU08nuB66AEn2tiLmI-34" value="" style="shape=partialRectangle;connectable=0;fillColor=none;top=0;left=0;bottom=0;right=0;editable=1;overflow=hidden;whiteSpace=wrap;html=1;fontSize=16;" vertex="1" parent="ezrU08nuB66AEn2tiLmI-33">
          <mxGeometry width="30" height="20" as="geometry">
            <mxRectangle width="30" height="20" as="alternateBounds" />
          </mxGeometry>
        </mxCell>
        <mxCell id="ezrU08nuB66AEn2tiLmI-35" value="상세주소" style="shape=partialRectangle;connectable=0;fillColor=none;top=0;left=0;bottom=0;right=0;align=left;spacingLeft=6;overflow=hidden;whiteSpace=wrap;html=1;fontSize=16;" vertex="1" parent="ezrU08nuB66AEn2tiLmI-33">
          <mxGeometry x="30" width="150" height="20" as="geometry">
            <mxRectangle width="150" height="20" as="alternateBounds" />
          </mxGeometry>
        </mxCell>
        <mxCell id="ezrU08nuB66AEn2tiLmI-118" value="" style="shape=tableRow;horizontal=0;startSize=0;swimlaneHead=0;swimlaneBody=0;fillColor=none;collapsible=0;dropTarget=0;points=[[0,0.5],[1,0.5]];portConstraint=eastwest;top=0;left=0;right=0;bottom=0;fontSize=16;" vertex="1" parent="ezrU08nuB66AEn2tiLmI-1">
          <mxGeometry y="230" width="180" height="20" as="geometry" />
        </mxCell>
        <mxCell id="ezrU08nuB66AEn2tiLmI-119" value="FK" style="shape=partialRectangle;connectable=0;fillColor=none;top=0;left=0;bottom=0;right=0;editable=1;overflow=hidden;whiteSpace=wrap;html=1;fontSize=16;" vertex="1" parent="ezrU08nuB66AEn2tiLmI-118">
          <mxGeometry width="30" height="20" as="geometry">
            <mxRectangle width="30" height="20" as="alternateBounds" />
          </mxGeometry>
        </mxCell>
        <mxCell id="ezrU08nuB66AEn2tiLmI-120" value="지역코드" style="shape=partialRectangle;connectable=0;fillColor=none;top=0;left=0;bottom=0;right=0;align=left;spacingLeft=6;overflow=hidden;whiteSpace=wrap;html=1;fontSize=16;" vertex="1" parent="ezrU08nuB66AEn2tiLmI-118">
          <mxGeometry x="30" width="150" height="20" as="geometry">
            <mxRectangle width="150" height="20" as="alternateBounds" />
          </mxGeometry>
        </mxCell>
        <mxCell id="ezrU08nuB66AEn2tiLmI-49" value="제품" style="shape=table;startSize=30;container=1;collapsible=1;childLayout=tableLayout;fixedRows=1;rowLines=0;fontStyle=1;align=center;resizeLast=1;html=1;fontSize=16;" vertex="1" parent="1">
          <mxGeometry x="1350" y="212.5" width="180" height="150" as="geometry" />
        </mxCell>
        <mxCell id="ezrU08nuB66AEn2tiLmI-50" value="" style="shape=tableRow;horizontal=0;startSize=0;swimlaneHead=0;swimlaneBody=0;fillColor=none;collapsible=0;dropTarget=0;points=[[0,0.5],[1,0.5]];portConstraint=eastwest;top=0;left=0;right=0;bottom=1;fontSize=16;" vertex="1" parent="ezrU08nuB66AEn2tiLmI-49">
          <mxGeometry y="30" width="180" height="30" as="geometry" />
        </mxCell>
        <mxCell id="ezrU08nuB66AEn2tiLmI-51" value="PK" style="shape=partialRectangle;connectable=0;fillColor=none;top=0;left=0;bottom=0;right=0;fontStyle=1;overflow=hidden;whiteSpace=wrap;html=1;fontSize=16;" vertex="1" parent="ezrU08nuB66AEn2tiLmI-50">
          <mxGeometry width="30" height="30" as="geometry">
            <mxRectangle width="30" height="30" as="alternateBounds" />
          </mxGeometry>
        </mxCell>
        <mxCell id="ezrU08nuB66AEn2tiLmI-52" value="&lt;font color=&quot;#ff0000&quot;&gt;제품코드&lt;/font&gt;" style="shape=partialRectangle;connectable=0;fillColor=none;top=0;left=0;bottom=0;right=0;align=left;spacingLeft=6;fontStyle=5;overflow=hidden;whiteSpace=wrap;html=1;fontSize=16;" vertex="1" parent="ezrU08nuB66AEn2tiLmI-50">
          <mxGeometry x="30" width="150" height="30" as="geometry">
            <mxRectangle width="150" height="30" as="alternateBounds" />
          </mxGeometry>
        </mxCell>
        <mxCell id="ezrU08nuB66AEn2tiLmI-53" value="" style="shape=tableRow;horizontal=0;startSize=0;swimlaneHead=0;swimlaneBody=0;fillColor=none;collapsible=0;dropTarget=0;points=[[0,0.5],[1,0.5]];portConstraint=eastwest;top=0;left=0;right=0;bottom=0;fontSize=16;" vertex="1" parent="ezrU08nuB66AEn2tiLmI-49">
          <mxGeometry y="60" width="180" height="30" as="geometry" />
        </mxCell>
        <mxCell id="ezrU08nuB66AEn2tiLmI-54" value="" style="shape=partialRectangle;connectable=0;fillColor=none;top=0;left=0;bottom=0;right=0;editable=1;overflow=hidden;whiteSpace=wrap;html=1;fontSize=16;" vertex="1" parent="ezrU08nuB66AEn2tiLmI-53">
          <mxGeometry width="30" height="30" as="geometry">
            <mxRectangle width="30" height="30" as="alternateBounds" />
          </mxGeometry>
        </mxCell>
        <mxCell id="ezrU08nuB66AEn2tiLmI-55" value="가격" style="shape=partialRectangle;connectable=0;fillColor=none;top=0;left=0;bottom=0;right=0;align=left;spacingLeft=6;overflow=hidden;whiteSpace=wrap;html=1;fontSize=16;" vertex="1" parent="ezrU08nuB66AEn2tiLmI-53">
          <mxGeometry x="30" width="150" height="30" as="geometry">
            <mxRectangle width="150" height="30" as="alternateBounds" />
          </mxGeometry>
        </mxCell>
        <mxCell id="ezrU08nuB66AEn2tiLmI-56" value="" style="shape=tableRow;horizontal=0;startSize=0;swimlaneHead=0;swimlaneBody=0;fillColor=none;collapsible=0;dropTarget=0;points=[[0,0.5],[1,0.5]];portConstraint=eastwest;top=0;left=0;right=0;bottom=0;fontSize=16;" vertex="1" parent="ezrU08nuB66AEn2tiLmI-49">
          <mxGeometry y="90" width="180" height="30" as="geometry" />
        </mxCell>
        <mxCell id="ezrU08nuB66AEn2tiLmI-57" value="" style="shape=partialRectangle;connectable=0;fillColor=none;top=0;left=0;bottom=0;right=0;editable=1;overflow=hidden;whiteSpace=wrap;html=1;fontSize=16;" vertex="1" parent="ezrU08nuB66AEn2tiLmI-56">
          <mxGeometry width="30" height="30" as="geometry">
            <mxRectangle width="30" height="30" as="alternateBounds" />
          </mxGeometry>
        </mxCell>
        <mxCell id="ezrU08nuB66AEn2tiLmI-58" value="제품명" style="shape=partialRectangle;connectable=0;fillColor=none;top=0;left=0;bottom=0;right=0;align=left;spacingLeft=6;overflow=hidden;whiteSpace=wrap;html=1;fontSize=16;" vertex="1" parent="ezrU08nuB66AEn2tiLmI-56">
          <mxGeometry x="30" width="150" height="30" as="geometry">
            <mxRectangle width="150" height="30" as="alternateBounds" />
          </mxGeometry>
        </mxCell>
        <mxCell id="ezrU08nuB66AEn2tiLmI-59" value="" style="shape=tableRow;horizontal=0;startSize=0;swimlaneHead=0;swimlaneBody=0;fillColor=none;collapsible=0;dropTarget=0;points=[[0,0.5],[1,0.5]];portConstraint=eastwest;top=0;left=0;right=0;bottom=0;fontSize=16;" vertex="1" parent="ezrU08nuB66AEn2tiLmI-49">
          <mxGeometry y="120" width="180" height="30" as="geometry" />
        </mxCell>
        <mxCell id="ezrU08nuB66AEn2tiLmI-60" value="" style="shape=partialRectangle;connectable=0;fillColor=none;top=0;left=0;bottom=0;right=0;editable=1;overflow=hidden;whiteSpace=wrap;html=1;fontSize=16;" vertex="1" parent="ezrU08nuB66AEn2tiLmI-59">
          <mxGeometry width="30" height="30" as="geometry">
            <mxRectangle width="30" height="30" as="alternateBounds" />
          </mxGeometry>
        </mxCell>
        <mxCell id="ezrU08nuB66AEn2tiLmI-61" value="제품구분" style="shape=partialRectangle;connectable=0;fillColor=none;top=0;left=0;bottom=0;right=0;align=left;spacingLeft=6;overflow=hidden;whiteSpace=wrap;html=1;fontSize=16;" vertex="1" parent="ezrU08nuB66AEn2tiLmI-59">
          <mxGeometry x="30" width="150" height="30" as="geometry">
            <mxRectangle width="150" height="30" as="alternateBounds" />
          </mxGeometry>
        </mxCell>
        <mxCell id="ezrU08nuB66AEn2tiLmI-87" value="구매" style="shape=table;startSize=30;container=1;collapsible=1;childLayout=tableLayout;fixedRows=1;rowLines=0;fontStyle=1;align=center;resizeLast=1;html=1;fontSize=16;" vertex="1" parent="1">
          <mxGeometry x="1110" y="207.5" width="180" height="180" as="geometry" />
        </mxCell>
        <mxCell id="ezrU08nuB66AEn2tiLmI-88" value="" style="shape=tableRow;horizontal=0;startSize=0;swimlaneHead=0;swimlaneBody=0;fillColor=none;collapsible=0;dropTarget=0;points=[[0,0.5],[1,0.5]];portConstraint=eastwest;top=0;left=0;right=0;bottom=1;fontSize=16;" vertex="1" parent="ezrU08nuB66AEn2tiLmI-87">
          <mxGeometry y="30" width="180" height="30" as="geometry" />
        </mxCell>
        <mxCell id="ezrU08nuB66AEn2tiLmI-89" value="PK" style="shape=partialRectangle;connectable=0;fillColor=none;top=0;left=0;bottom=0;right=0;fontStyle=1;overflow=hidden;whiteSpace=wrap;html=1;fontSize=16;" vertex="1" parent="ezrU08nuB66AEn2tiLmI-88">
          <mxGeometry width="30" height="30" as="geometry">
            <mxRectangle width="30" height="30" as="alternateBounds" />
          </mxGeometry>
        </mxCell>
        <mxCell id="ezrU08nuB66AEn2tiLmI-90" value="&lt;font color=&quot;#ff3333&quot;&gt;구매번호&lt;/font&gt;" style="shape=partialRectangle;connectable=0;fillColor=none;top=0;left=0;bottom=0;right=0;align=left;spacingLeft=6;fontStyle=5;overflow=hidden;whiteSpace=wrap;html=1;fontSize=16;" vertex="1" parent="ezrU08nuB66AEn2tiLmI-88">
          <mxGeometry x="30" width="150" height="30" as="geometry">
            <mxRectangle width="150" height="30" as="alternateBounds" />
          </mxGeometry>
        </mxCell>
        <mxCell id="ezrU08nuB66AEn2tiLmI-91" value="" style="shape=tableRow;horizontal=0;startSize=0;swimlaneHead=0;swimlaneBody=0;fillColor=none;collapsible=0;dropTarget=0;points=[[0,0.5],[1,0.5]];portConstraint=eastwest;top=0;left=0;right=0;bottom=0;fontSize=16;" vertex="1" parent="ezrU08nuB66AEn2tiLmI-87">
          <mxGeometry y="60" width="180" height="30" as="geometry" />
        </mxCell>
        <mxCell id="ezrU08nuB66AEn2tiLmI-92" value="FK" style="shape=partialRectangle;connectable=0;fillColor=none;top=0;left=0;bottom=0;right=0;editable=1;overflow=hidden;whiteSpace=wrap;html=1;fontSize=16;" vertex="1" parent="ezrU08nuB66AEn2tiLmI-91">
          <mxGeometry width="30" height="30" as="geometry">
            <mxRectangle width="30" height="30" as="alternateBounds" />
          </mxGeometry>
        </mxCell>
        <mxCell id="ezrU08nuB66AEn2tiLmI-93" value="제품코드" style="shape=partialRectangle;connectable=0;fillColor=none;top=0;left=0;bottom=0;right=0;align=left;spacingLeft=6;overflow=hidden;whiteSpace=wrap;html=1;fontSize=16;" vertex="1" parent="ezrU08nuB66AEn2tiLmI-91">
          <mxGeometry x="30" width="150" height="30" as="geometry">
            <mxRectangle width="150" height="30" as="alternateBounds" />
          </mxGeometry>
        </mxCell>
        <mxCell id="ezrU08nuB66AEn2tiLmI-94" value="" style="shape=tableRow;horizontal=0;startSize=0;swimlaneHead=0;swimlaneBody=0;fillColor=none;collapsible=0;dropTarget=0;points=[[0,0.5],[1,0.5]];portConstraint=eastwest;top=0;left=0;right=0;bottom=0;fontSize=16;" vertex="1" parent="ezrU08nuB66AEn2tiLmI-87">
          <mxGeometry y="90" width="180" height="30" as="geometry" />
        </mxCell>
        <mxCell id="ezrU08nuB66AEn2tiLmI-95" value="FK" style="shape=partialRectangle;connectable=0;fillColor=none;top=0;left=0;bottom=0;right=0;editable=1;overflow=hidden;whiteSpace=wrap;html=1;fontSize=16;" vertex="1" parent="ezrU08nuB66AEn2tiLmI-94">
          <mxGeometry width="30" height="30" as="geometry">
            <mxRectangle width="30" height="30" as="alternateBounds" />
          </mxGeometry>
        </mxCell>
        <mxCell id="ezrU08nuB66AEn2tiLmI-96" value="고객코드" style="shape=partialRectangle;connectable=0;fillColor=none;top=0;left=0;bottom=0;right=0;align=left;spacingLeft=6;overflow=hidden;whiteSpace=wrap;html=1;fontSize=16;" vertex="1" parent="ezrU08nuB66AEn2tiLmI-94">
          <mxGeometry x="30" width="150" height="30" as="geometry">
            <mxRectangle width="150" height="30" as="alternateBounds" />
          </mxGeometry>
        </mxCell>
        <mxCell id="ezrU08nuB66AEn2tiLmI-100" value="" style="shape=tableRow;horizontal=0;startSize=0;swimlaneHead=0;swimlaneBody=0;fillColor=none;collapsible=0;dropTarget=0;points=[[0,0.5],[1,0.5]];portConstraint=eastwest;top=0;left=0;right=0;bottom=0;fontSize=16;" vertex="1" parent="ezrU08nuB66AEn2tiLmI-87">
          <mxGeometry y="120" width="180" height="30" as="geometry" />
        </mxCell>
        <mxCell id="ezrU08nuB66AEn2tiLmI-101" value="" style="shape=partialRectangle;connectable=0;fillColor=none;top=0;left=0;bottom=0;right=0;editable=1;overflow=hidden;whiteSpace=wrap;html=1;fontSize=16;" vertex="1" parent="ezrU08nuB66AEn2tiLmI-100">
          <mxGeometry width="30" height="30" as="geometry">
            <mxRectangle width="30" height="30" as="alternateBounds" />
          </mxGeometry>
        </mxCell>
        <mxCell id="ezrU08nuB66AEn2tiLmI-102" value="수량" style="shape=partialRectangle;connectable=0;fillColor=none;top=0;left=0;bottom=0;right=0;align=left;spacingLeft=6;overflow=hidden;whiteSpace=wrap;html=1;fontSize=16;" vertex="1" parent="ezrU08nuB66AEn2tiLmI-100">
          <mxGeometry x="30" width="150" height="30" as="geometry">
            <mxRectangle width="150" height="30" as="alternateBounds" />
          </mxGeometry>
        </mxCell>
        <mxCell id="ezrU08nuB66AEn2tiLmI-103" value="" style="shape=tableRow;horizontal=0;startSize=0;swimlaneHead=0;swimlaneBody=0;fillColor=none;collapsible=0;dropTarget=0;points=[[0,0.5],[1,0.5]];portConstraint=eastwest;top=0;left=0;right=0;bottom=0;fontSize=16;" vertex="1" parent="ezrU08nuB66AEn2tiLmI-87">
          <mxGeometry y="150" width="180" height="30" as="geometry" />
        </mxCell>
        <mxCell id="ezrU08nuB66AEn2tiLmI-104" value="" style="shape=partialRectangle;connectable=0;fillColor=none;top=0;left=0;bottom=0;right=0;editable=1;overflow=hidden;whiteSpace=wrap;html=1;fontSize=16;" vertex="1" parent="ezrU08nuB66AEn2tiLmI-103">
          <mxGeometry width="30" height="30" as="geometry">
            <mxRectangle width="30" height="30" as="alternateBounds" />
          </mxGeometry>
        </mxCell>
        <mxCell id="ezrU08nuB66AEn2tiLmI-105" value="구매일자" style="shape=partialRectangle;connectable=0;fillColor=none;top=0;left=0;bottom=0;right=0;align=left;spacingLeft=6;overflow=hidden;whiteSpace=wrap;html=1;fontSize=16;" vertex="1" parent="ezrU08nuB66AEn2tiLmI-103">
          <mxGeometry x="30" width="150" height="30" as="geometry">
            <mxRectangle width="150" height="30" as="alternateBounds" />
          </mxGeometry>
        </mxCell>
        <mxCell id="ezrU08nuB66AEn2tiLmI-113" value="" style="shape=link;html=1;rounded=0;fontSize=12;startSize=8;endSize=8;curved=1;" edge="1" parent="1">
          <mxGeometry relative="1" as="geometry">
            <mxPoint x="450" y="270" as="sourcePoint" />
            <mxPoint x="610" y="270" as="targetPoint" />
          </mxGeometry>
        </mxCell>
        <mxCell id="ezrU08nuB66AEn2tiLmI-114" value="N" style="resizable=0;html=1;whiteSpace=wrap;align=right;verticalAlign=bottom;fontSize=16;" connectable="0" vertex="1" parent="ezrU08nuB66AEn2tiLmI-113">
          <mxGeometry x="1" relative="1" as="geometry" />
        </mxCell>
        <mxCell id="ezrU08nuB66AEn2tiLmI-116" value="" style="edgeStyle=entityRelationEdgeStyle;fontSize=12;html=1;endArrow=ERoneToMany;rounded=0;startSize=8;endSize=8;curved=1;" edge="1" parent="1">
          <mxGeometry width="100" height="100" relative="1" as="geometry">
            <mxPoint x="480" y="320" as="sourcePoint" />
            <mxPoint x="580" y="220" as="targetPoint" />
          </mxGeometry>
        </mxCell>
        <mxCell id="ezrU08nuB66AEn2tiLmI-129" value="" style="edgeStyle=entityRelationEdgeStyle;fontSize=12;html=1;endArrow=ERoneToMany;startArrow=ERmandOne;rounded=0;startSize=8;endSize=8;curved=0;entryX=0;entryY=0.5;entryDx=0;entryDy=0;" edge="1" parent="1" source="ezrU08nuB66AEn2tiLmI-2" target="ezrU08nuB66AEn2tiLmI-94">
          <mxGeometry width="100" height="100" relative="1" as="geometry">
            <mxPoint x="1080" y="677.5" as="sourcePoint" />
            <mxPoint x="1180" y="577.5" as="targetPoint" />
          </mxGeometry>
        </mxCell>
        <mxCell id="ezrU08nuB66AEn2tiLmI-130" value="" style="edgeStyle=entityRelationEdgeStyle;fontSize=12;html=1;endArrow=ERoneToMany;startArrow=ERmandOne;rounded=0;startSize=8;endSize=8;curved=0;entryX=1;entryY=0.5;entryDx=0;entryDy=0;exitX=0;exitY=0.5;exitDx=0;exitDy=0;" edge="1" parent="1" source="ezrU08nuB66AEn2tiLmI-133" target="ezrU08nuB66AEn2tiLmI-118">
          <mxGeometry width="100" height="100" relative="1" as="geometry">
            <mxPoint x="1110" y="612.4999999999998" as="sourcePoint" />
            <mxPoint x="1180" y="577.5" as="targetPoint" />
          </mxGeometry>
        </mxCell>
        <mxCell id="ezrU08nuB66AEn2tiLmI-131" value="" style="edgeStyle=entityRelationEdgeStyle;fontSize=12;html=1;endArrow=ERoneToMany;startArrow=ERmandOne;rounded=0;startSize=8;endSize=8;curved=0;exitX=0;exitY=0.5;exitDx=0;exitDy=0;entryX=1;entryY=0.5;entryDx=0;entryDy=0;" edge="1" parent="1" source="ezrU08nuB66AEn2tiLmI-50" target="ezrU08nuB66AEn2tiLmI-91">
          <mxGeometry width="100" height="100" relative="1" as="geometry">
            <mxPoint x="1080" y="677.5" as="sourcePoint" />
            <mxPoint x="1180" y="577.5" as="targetPoint" />
          </mxGeometry>
        </mxCell>
        <mxCell id="ezrU08nuB66AEn2tiLmI-132" value="지역" style="shape=table;startSize=30;container=1;collapsible=1;childLayout=tableLayout;fixedRows=1;rowLines=0;fontStyle=1;align=center;resizeLast=1;html=1;fontSize=16;" vertex="1" parent="1">
          <mxGeometry x="1150" y="522.5" width="180" height="90.00000000000023" as="geometry" />
        </mxCell>
        <mxCell id="ezrU08nuB66AEn2tiLmI-133" value="" style="shape=tableRow;horizontal=0;startSize=0;swimlaneHead=0;swimlaneBody=0;fillColor=none;collapsible=0;dropTarget=0;points=[[0,0.5],[1,0.5]];portConstraint=eastwest;top=0;left=0;right=0;bottom=1;fontSize=16;" vertex="1" parent="ezrU08nuB66AEn2tiLmI-132">
          <mxGeometry y="30" width="180" height="30" as="geometry" />
        </mxCell>
        <mxCell id="ezrU08nuB66AEn2tiLmI-134" value="PK" style="shape=partialRectangle;connectable=0;fillColor=none;top=0;left=0;bottom=0;right=0;fontStyle=1;overflow=hidden;whiteSpace=wrap;html=1;fontSize=16;" vertex="1" parent="ezrU08nuB66AEn2tiLmI-133">
          <mxGeometry width="30" height="30" as="geometry">
            <mxRectangle width="30" height="30" as="alternateBounds" />
          </mxGeometry>
        </mxCell>
        <mxCell id="ezrU08nuB66AEn2tiLmI-135" value="&lt;font color=&quot;#ff3333&quot;&gt;지역코드&lt;/font&gt;" style="shape=partialRectangle;connectable=0;fillColor=none;top=0;left=0;bottom=0;right=0;align=left;spacingLeft=6;fontStyle=5;overflow=hidden;whiteSpace=wrap;html=1;fontSize=16;" vertex="1" parent="ezrU08nuB66AEn2tiLmI-133">
          <mxGeometry x="30" width="150" height="30" as="geometry">
            <mxRectangle width="150" height="30" as="alternateBounds" />
          </mxGeometry>
        </mxCell>
        <mxCell id="ezrU08nuB66AEn2tiLmI-136" value="" style="shape=tableRow;horizontal=0;startSize=0;swimlaneHead=0;swimlaneBody=0;fillColor=none;collapsible=0;dropTarget=0;points=[[0,0.5],[1,0.5]];portConstraint=eastwest;top=0;left=0;right=0;bottom=0;fontSize=16;" vertex="1" parent="ezrU08nuB66AEn2tiLmI-132">
          <mxGeometry y="60" width="180" height="30" as="geometry" />
        </mxCell>
        <mxCell id="ezrU08nuB66AEn2tiLmI-137" value="" style="shape=partialRectangle;connectable=0;fillColor=none;top=0;left=0;bottom=0;right=0;editable=1;overflow=hidden;whiteSpace=wrap;html=1;fontSize=16;" vertex="1" parent="ezrU08nuB66AEn2tiLmI-136">
          <mxGeometry width="30" height="30" as="geometry">
            <mxRectangle width="30" height="30" as="alternateBounds" />
          </mxGeometry>
        </mxCell>
        <mxCell id="ezrU08nuB66AEn2tiLmI-138" value="지역명" style="shape=partialRectangle;connectable=0;fillColor=none;top=0;left=0;bottom=0;right=0;align=left;spacingLeft=6;overflow=hidden;whiteSpace=wrap;html=1;fontSize=16;" vertex="1" parent="ezrU08nuB66AEn2tiLmI-136">
          <mxGeometry x="30" width="150" height="30" as="geometry">
            <mxRectangle width="150" height="30" as="alternateBounds" />
          </mxGeometry>
        </mxCell>
      </root>
    </mxGraphModel>
  </diagram>
</mxfile>
